<?xml version="1.0" encoding="utf-8"?>
<!-- Generator: Adobe Illustrator 22.0.1, SVG Export Plug-In . SVG Version: 6.00 Build 0)  -->
<svg version="1.1" id="Layer_1" xmlns="http://www.w3.org/2000/svg" xmlns:xlink="http://www.w3.org/1999/xlink" x="0px" y="0px"
	 viewBox="0 0 150 150" style="enable-background:new 0 0 150 150;" xml:space="preserve">
<style type="text/css">
	.st0{fill:#FFFFFF;}
</style>
<rect width="150" height="150" fill="#4a4a4a"/>
<g id="SvgjsG1298" transform="matrix(0.7,0,0,0.7,10,5.879799890518188)">
	<polygon class="st0" points="92.5,27.8 33.9,61.8 49.5,70.8 92.9,95.8 151.3,61.8 	"/>
	<polygon class="st0" points="153.5,66.6 95.3,100.4 95.5,117.2 152.9,117.2 152.9,117.4 	"/>
	<path class="st0" d="M158.9,60.2c0,0,0,1.4,0,1.6c0,0,0-1.6,0,0l0,0l0,0l0.6,55.4h31.8c1.2-6,1.6-12,1.6-18.4
		c0-55.2-44.8-100-100-100s-100,44.6-100,100c0,6.2,0.6,12.4,1.6,18.4h30.4v0.2l0.4-55.6l0.2-0.2v-0.2v-0.2V61v-0.2v-0.2v-0.2v-0.2
		c0,0,0,0,0-0.2s0,0,0-0.2c0,0,0,0,0.2-0.2c0,0,0,0,0.2-0.2c0,0,0,0,0.2-0.2c0,0,0,0,0.2-0.2c0,0,0.2,0,0.2-0.2c0,0,0,0,0.2,0l0,0
		l0,0l0,0l64-37.2c0.8-0.4,2-0.6,2.8,0l64.4,37.2c0.2,0,0.2,0.2,0.4,0.2l0,0l0.2,0.2"/>
	<polygon class="st0" points="89.5,100.6 77.1,93.2 31.1,66.4 31.1,117.2 88.9,117.2 88.9,117.4 	"/>
	<path class="st0" d="M156.7,124c-1.4,0-2.4,1.2-2.4,2.6c0,1.4,1,2.6,2.4,2.6l0,0c1.4,0,2.4-1.2,2.4-2.6S158.1,124,156.7,124z"/>
	<path class="st0" d="M156.7,133.4c-0.6,0-1.2,0.2-1.8,0.8c-0.4,0.4-0.8,1-0.8,1.8c0,0.6,0.2,1.2,0.8,1.8c0.4,0.4,1,0.8,1.8,0.8
		s1.2-0.2,1.8-0.8c0.4-0.4,0.8-1,0.8-1.8c0-0.6-0.2-1.2-0.8-1.8S157.3,133.4,156.7,133.4z"/>
	<path class="st0" d="M147.3,138.4c-1.2,0.6-1.6,2.2-0.8,3.4c0.4,0.8,1.2,1.2,2.2,1.2c0.4,0,0.8-0.2,1.2-0.4
		c1.2-0.6,1.6-2.2,0.8-3.4C150.1,138,148.5,137.6,147.3,138.4z"/>
	<path class="st0" d="M139.3,143c-1.2,0.6-1.6,2.2-0.8,3.4c0.4,0.8,1.2,1.2,2.2,1.2c0.4,0,0.8-0.2,1.2-0.4c1.2-0.6,1.6-2.2,0.8-3.4
		S140.5,142.2,139.3,143z"/>
	<path class="st0" d="M99.3,166.2c-1.2,0.6-1.6,2.2-0.8,3.4c0.4,0.8,1.2,1.2,2.2,1.2c0.4,0,0.8-0.2,1.2-0.4c1.2-0.6,1.6-2.2,0.8-3.4
		C102.1,166,100.5,165.6,99.3,166.2z"/>
	<path class="st0" d="M107.3,161.6c-1.2,0.6-1.6,2.2-0.8,3.4c0.4,0.8,1.2,1.2,2.2,1.2c0.4,0,0.8-0.2,1.2-0.4
		c1.2-0.6,1.6-2.2,0.8-3.4S108.5,160.8,107.3,161.6z"/>
	<path class="st0" d="M115.3,157c-1.2,0.6-1.6,2.2-0.8,3.4c0.4,0.8,1.2,1.2,2.2,1.2c0.4,0,0.8-0.2,1.2-0.4c1.2-0.6,1.6-2.2,0.8-3.4
		C118.1,156.6,116.5,156.2,115.3,157z"/>
	<path class="st0" d="M131.3,147.6c-1.2,0.6-1.6,2.2-0.8,3.4c0.4,0.8,1.2,1.2,2.2,1.2c0.4,0,0.8-0.2,1.2-0.4
		c1.2-0.6,1.6-2.2,0.8-3.4C134.1,147.4,132.5,147,131.3,147.6z"/>
	<path class="st0" d="M123.3,152.2c-1.2,0.6-1.6,2.2-0.8,3.4c0.4,0.8,1.2,1.2,2.2,1.2c0.4,0,0.8-0.2,1.2-0.4
		c1.2-0.6,1.6-2.2,0.8-3.4S124.5,151.6,123.3,152.2z"/>
	<path class="st0" d="M92.7,142.8c1.4,0,2.4,1.2,2.4,2.4C95.1,143.8,94.1,142.8,92.7,142.8z"/>
	<path class="st0" d="M92.7,161.2c1.4,0,2.4,1.2,2.4,2.4C95.1,162.4,94.1,161.2,92.7,161.2z"/>
	<path class="st0" d="M90.5,146.2c0.4,0.8,1.2,1.4,2.2,1.6C91.7,147.6,90.9,147,90.5,146.2z"/>
	<path class="st0" d="M90.3,163.8c0-0.6,0.2-1.2,0.8-1.8C90.5,162.4,90.3,163,90.3,163.8z"/>
	<path class="st0" d="M90.3,163.8c0,1.4,1,2.4,2.4,2.4C91.3,166.2,90.3,165,90.3,163.8z"/>
	<path class="st0" d="M90.3,126.8c0,1.4,1,2.4,2.4,2.4C91.5,129.2,90.3,128,90.3,126.8z"/>
	<path class="st0" d="M92.7,133.6c-1.2,0-2.2,0.8-2.4,2c0,0.2,0,0.8,0,0.8c0,1.4,1,2.8,2.4,2.8l0,0c1.4,0,2.4-1.4,2.4-2.8
		c0-0.2,0-0.6,0-0.6C94.9,134.6,93.9,133.6,92.7,133.6z"/>
	<path class="st0" d="M92.7,152c-1.4,0-2.4,1.2-2.4,2.6c0,1.4,1,2.6,2.4,2.6l0,0c1.4,0,2.4-1.2,2.4-2.6S94.1,152,92.7,152z"/>
	<path class="st0" d="M92.7,142.8c-0.2,0-0.4,0-0.4,0c-1.2,0.2-2,1.2-2,2.4c0,0.4,0,0.4,0.2,0.8c0.4,0.8,1.2,1.2,2.2,1.2l0,0l0,0
		c1.2,0,2.2-0.6,2.4-1.8c0-0.2,0-0.2,0-0.4C95.1,143.8,94.1,142.8,92.7,142.8z"/>
	<path class="st0" d="M92.7,124.2c-1.4,0-2.4,1.2-2.4,2.4c0,1.4,1,2.4,2.4,2.4l0,0c1.4,0,2.4-1.2,2.4-2.4
		C95.3,125.4,94.1,124.2,92.7,124.2z"/>
	<path class="st0" d="M92.7,161.2c-0.6,0-1.2,0.2-1.8,0.8s-0.8,1.6-0.8,2.2c0,1.4,1,3,2.4,3l0,0c1.4,0,2.4-1.6,2.4-3
		C95.1,162.8,94.1,161.2,92.7,161.2z"/>
	<path class="st0" d="M92.7,170.6c-0.6,0-1.2,0.2-1.8,0.8c-0.4,0.4-0.8,1-0.8,1.8c0,0.6,0.2,1.2,0.8,1.8c0.4,0.4,1,0.8,1.8,0.8
		c0.6,0,1.2-0.2,1.8-0.8c0.4-0.4,0.8-1,0.8-1.8c0-0.6-0.2-1.2-0.8-1.8C93.9,170.8,93.3,170.6,92.7,170.6z"/>
	<path class="st0" d="M85.9,166.2c-1.2-0.6-2.6-0.2-3.4,1c-0.6,1.2-0.2,2.6,0.8,3.4c0.4,0.2,0.8,0.4,1.2,0.4c0.8,0,1.6-0.4,2.2-1.2
		C87.3,168.4,86.9,166.8,85.9,166.2z"/>
	<path class="st0" d="M45.5,143c-1.2-0.6-2.6-0.2-3.4,0.8c-0.6,1.2-0.2,2.6,0.8,3.4c0.4,0.2,0.8,0.4,1.2,0.4c0.8,0,1.6-0.4,2.2-1.2
		C47.1,145.2,46.7,143.6,45.5,143z"/>
	<path class="st0" d="M37.5,138.4c-1.2-0.6-2.6-0.2-3.4,0.8c-0.6,1.2-0.2,2.6,0.8,3.4c0.4,0.2,0.8,0.4,1.2,0.4
		c0.8,0,1.6-0.4,2.2-1.2C39.1,140.4,38.7,139,37.5,138.4z"/>
	<path class="st0" d="M69.7,157c-1.2-0.6-2.6-0.2-3.4,0.8c-0.6,1.2-0.2,2.6,1,3.4c0.4,0.2,0.8,0.4,1.2,0.4c0.8,0,1.6-0.4,2.2-1.2
		C71.3,159,70.9,157.6,69.7,157z"/>
	<path class="st0" d="M61.7,152.2c-1.2-0.6-2.6-0.2-3.4,0.8c-0.6,1.2-0.2,2.6,1,3.4c0.4,0.2,0.8,0.4,1.2,0.4c0.8,0,1.6-0.4,2.2-1.2
		C63.3,154.4,62.9,153,61.7,152.2z"/>
	<path class="st0" d="M77.7,161.6c-1.2-0.6-2.6-0.2-3.4,0.8c-0.6,1.2-0.2,2.6,0.8,3.4c0.4,0.2,0.8,0.4,1.2,0.4
		c0.8,0,1.6-0.4,2.2-1.2C79.3,163.8,78.9,162.2,77.7,161.6z"/>
	<path class="st0" d="M53.7,147.6c-1.2-0.6-2.6-0.2-3.4,0.8c-0.6,1.2-0.2,2.6,0.8,3.4c0.4,0.2,0.8,0.4,1.2,0.4
		c0.8,0,1.6-0.4,2.2-1.2C55.1,149.8,54.7,148.2,53.7,147.6z"/>
	<path class="st0" d="M28.3,133.4c-0.6,0-1.2,0.2-1.8,0.8c-0.4,0.4-0.8,1-0.8,1.6s0.2,1.2,0.8,1.8c0.4,0.4,1,0.8,1.8,0.8
		c0.6,0,1.2-0.2,1.8-0.8c0.4-0.4,0.8-1,0.8-1.8c0-0.6-0.2-1.2-0.8-1.8C29.5,133.6,28.9,133.4,28.3,133.4z"/>
	<path class="st0" d="M28.3,124c-1.4,0-2.4,1.2-2.4,2.6c-0.2,1.4,1,2.6,2.4,2.6l0,0c1.4,0,2.4-1.2,2.4-2.6
		C30.7,125.4,29.7,124,28.3,124z"/>
	<path class="st0" d="M187.5,121.2h-190c-0.6,0-1,0.4-1,1s0.6,1,1,1h189.8c0.6,0,1-0.4,1-1S187.9,121.2,187.5,121.2z"/>
</g>
</svg>
