<?xml version="1.0" encoding="utf-8"?>
<!-- Generator: Adobe Illustrator 22.0.1, SVG Export Plug-In . SVG Version: 6.00 Build 0)  -->
<svg version="1.1" id="Layer_1" xmlns="http://www.w3.org/2000/svg" xmlns:xlink="http://www.w3.org/1999/xlink" x="0px" y="0px"
	 viewBox="0 0 300 82" style="enable-background:new 0 0 300 82;" xml:space="preserve">
<style type="text/css">
	.st0{fill:#FFFFFF;}
	.st2{display:inline;fill:#FFFFFF;}
</style>
<g id="SvgjsG1298" transform="matrix(0.7,0,0,0.7,10,5.879799890518188)">
	<polygon class="st0" points="41.4,20.3 12.1,37.3 19.9,41.8 41.6,54.3 70.8,37.3 	"/>
	<polygon class="st0" points="71.9,39.7 42.8,56.6 42.9,65 71.6,65 71.6,65.1 	"/>
	<path class="st0" d="M74.6,36.5c0,0,0,0.7,0,0.8c0,0,0-0.8,0,0l0,0l0,0L74.9,65h15.9c0.6-3,0.8-6,0.8-9.2c0-27.6-22.4-50-50-50
		s-50,22.3-50,50c0,3.1,0.3,6.2,0.8,9.2H7.6v0.1l0.2-27.8l0.1-0.1v-0.1V37v-0.1v-0.1v-0.1v-0.1v-0.1c0,0,0,0,0-0.1s0,0,0-0.1
		c0,0,0,0,0.1-0.1c0,0,0,0,0.1-0.1c0,0,0,0,0.1-0.1c0,0,0,0,0.1-0.1c0,0,0.1,0,0.1-0.1c0,0,0,0,0.1,0l0,0l0,0l0,0l32-18.6
		c0.4-0.2,1-0.3,1.4,0l32.2,18.6c0.1,0,0.1,0.1,0.2,0.1l0,0l0.1,0.1"/>
	<polygon class="st0" points="39.9,56.7 33.7,53 10.7,39.6 10.7,65 39.6,65 39.6,65.1 	"/>
	<path class="st0" d="M73.5,68.4c-0.7,0-1.2,0.6-1.2,1.3c0,0.7,0.5,1.3,1.2,1.3l0,0c0.7,0,1.2-0.6,1.2-1.3S74.2,68.4,73.5,68.4z"/>
	<path class="st0" d="M73.5,73.1c-0.3,0-0.6,0.1-0.9,0.4c-0.2,0.2-0.4,0.5-0.4,0.9c0,0.3,0.1,0.6,0.4,0.9c0.2,0.2,0.5,0.4,0.9,0.4
		s0.6-0.1,0.9-0.4c0.2-0.2,0.4-0.5,0.4-0.9c0-0.3-0.1-0.6-0.4-0.9S73.8,73.1,73.5,73.1z"/>
	<path class="st0" d="M68.8,75.6c-0.6,0.3-0.8,1.1-0.4,1.7c0.2,0.4,0.6,0.6,1.1,0.6c0.2,0,0.4-0.1,0.6-0.2c0.6-0.3,0.8-1.1,0.4-1.7
		C70.2,75.4,69.4,75.2,68.8,75.6z"/>
	<path class="st0" d="M64.8,77.9c-0.6,0.3-0.8,1.1-0.4,1.7c0.2,0.4,0.6,0.6,1.1,0.6c0.2,0,0.4-0.1,0.6-0.2c0.6-0.3,0.8-1.1,0.4-1.7
		S65.4,77.5,64.8,77.9z"/>
	<path class="st0" d="M44.8,89.5c-0.6,0.3-0.8,1.1-0.4,1.7c0.2,0.4,0.6,0.6,1.1,0.6c0.2,0,0.4-0.1,0.6-0.2c0.6-0.3,0.8-1.1,0.4-1.7
		C46.2,89.4,45.4,89.2,44.8,89.5z"/>
	<path class="st0" d="M48.8,87.2c-0.6,0.3-0.8,1.1-0.4,1.7c0.2,0.4,0.6,0.6,1.1,0.6c0.2,0,0.4-0.1,0.6-0.2c0.6-0.3,0.8-1.1,0.4-1.7
		S49.4,86.8,48.8,87.2z"/>
	<path class="st0" d="M52.8,84.9c-0.6,0.3-0.8,1.1-0.4,1.7c0.2,0.4,0.6,0.6,1.1,0.6c0.2,0,0.4-0.1,0.6-0.2c0.6-0.3,0.8-1.1,0.4-1.7
		C54.2,84.7,53.4,84.5,52.8,84.9z"/>
	<path class="st0" d="M60.8,80.2c-0.6,0.3-0.8,1.1-0.4,1.7c0.2,0.4,0.6,0.6,1.1,0.6c0.2,0,0.4-0.1,0.6-0.2c0.6-0.3,0.8-1.1,0.4-1.7
		C62.2,80.1,61.4,79.9,60.8,80.2z"/>
	<path class="st0" d="M56.8,82.5c-0.6,0.3-0.8,1.1-0.4,1.7c0.2,0.4,0.6,0.6,1.1,0.6c0.2,0,0.4-0.1,0.6-0.2c0.6-0.3,0.8-1.1,0.4-1.7
		S57.4,82.2,56.8,82.5z"/>
	<path class="st0" d="M41.5,77.8c0.7,0,1.2,0.6,1.2,1.2C42.7,78.3,42.2,77.8,41.5,77.8z"/>
	<path class="st0" d="M41.5,87c0.7,0,1.2,0.6,1.2,1.2C42.7,87.6,42.2,87,41.5,87z"/>
	<path class="st0" d="M40.4,79.5c0.2,0.4,0.6,0.7,1.1,0.8C41,80.2,40.6,79.9,40.4,79.5z"/>
	<path class="st0" d="M40.3,88.3c0-0.3,0.1-0.6,0.4-0.9C40.4,87.6,40.3,87.9,40.3,88.3z"/>
	<path class="st0" d="M40.3,88.3c0,0.7,0.5,1.2,1.2,1.2C40.8,89.5,40.3,88.9,40.3,88.3z"/>
	<path class="st0" d="M40.3,69.8c0,0.7,0.5,1.2,1.2,1.2C40.9,71,40.3,70.4,40.3,69.8z"/>
	<path class="st0" d="M41.5,73.2c-0.6,0-1.1,0.4-1.2,1c0,0.1,0,0.4,0,0.4c0,0.7,0.5,1.4,1.2,1.4l0,0c0.7,0,1.2-0.7,1.2-1.4
		c0-0.1,0-0.3,0-0.3C42.6,73.7,42.1,73.2,41.5,73.2z"/>
	<path class="st0" d="M41.5,82.4c-0.7,0-1.2,0.6-1.2,1.3c0,0.7,0.5,1.3,1.2,1.3l0,0c0.7,0,1.2-0.6,1.2-1.3S42.2,82.4,41.5,82.4z"/>
	<path class="st0" d="M41.5,77.8c-0.1,0-0.2,0-0.2,0c-0.6,0.1-1,0.6-1,1.2c0,0.2,0,0.2,0.1,0.4c0.2,0.4,0.6,0.6,1.1,0.6l0,0l0,0
		c0.6,0,1.1-0.3,1.2-0.9c0-0.1,0-0.1,0-0.2C42.7,78.3,42.2,77.8,41.5,77.8z"/>
	<path class="st0" d="M41.5,68.5c-0.7,0-1.2,0.6-1.2,1.2c0,0.7,0.5,1.2,1.2,1.2l0,0c0.7,0,1.2-0.6,1.2-1.2
		C42.8,69.1,42.2,68.5,41.5,68.5z"/>
	<path class="st0" d="M41.5,87c-0.3,0-0.6,0.1-0.9,0.4s-0.4,0.8-0.4,1.1c0,0.7,0.5,1.5,1.2,1.5l0,0c0.7,0,1.2-0.8,1.2-1.5
		C42.7,87.8,42.2,87,41.5,87z"/>
	<path class="st0" d="M41.5,91.7c-0.3,0-0.6,0.1-0.9,0.4c-0.2,0.2-0.4,0.5-0.4,0.9c0,0.3,0.1,0.6,0.4,0.9c0.2,0.2,0.5,0.4,0.9,0.4
		c0.3,0,0.6-0.1,0.9-0.4c0.2-0.2,0.4-0.5,0.4-0.9c0-0.3-0.1-0.6-0.4-0.9C42.1,91.8,41.8,91.7,41.5,91.7z"/>
	<path class="st0" d="M38.1,89.5c-0.6-0.3-1.3-0.1-1.7,0.5c-0.3,0.6-0.1,1.3,0.4,1.7c0.2,0.1,0.4,0.2,0.6,0.2c0.4,0,0.8-0.2,1.1-0.6
		C38.8,90.6,38.6,89.8,38.1,89.5z"/>
	<path class="st0" d="M17.9,77.9c-0.6-0.3-1.3-0.1-1.7,0.4c-0.3,0.6-0.1,1.3,0.4,1.7c0.2,0.1,0.4,0.2,0.6,0.2c0.4,0,0.8-0.2,1.1-0.6
		C18.7,79,18.5,78.2,17.9,77.9z"/>
	<path class="st0" d="M13.9,75.6c-0.6-0.3-1.3-0.1-1.7,0.4c-0.3,0.6-0.1,1.3,0.4,1.7c0.2,0.1,0.4,0.2,0.6,0.2c0.4,0,0.8-0.2,1.1-0.6
		C14.7,76.6,14.5,75.9,13.9,75.6z"/>
	<path class="st0" d="M30,84.9c-0.6-0.3-1.3-0.1-1.7,0.4c-0.3,0.6-0.1,1.3,0.5,1.7c0.2,0.1,0.4,0.2,0.6,0.2c0.4,0,0.8-0.2,1.1-0.6
		C30.8,85.9,30.6,85.2,30,84.9z"/>
	<path class="st0" d="M26,82.5c-0.6-0.3-1.3-0.1-1.7,0.4c-0.3,0.6-0.1,1.3,0.5,1.7c0.2,0.1,0.4,0.2,0.6,0.2c0.4,0,0.8-0.2,1.1-0.6
		C26.8,83.6,26.6,82.9,26,82.5z"/>
	<path class="st0" d="M34,87.2c-0.6-0.3-1.3-0.1-1.7,0.4c-0.3,0.6-0.1,1.3,0.4,1.7c0.2,0.1,0.4,0.2,0.6,0.2c0.4,0,0.8-0.2,1.1-0.6
		C34.8,88.3,34.6,87.5,34,87.2z"/>
	<path class="st0" d="M22,80.2c-0.6-0.3-1.3-0.1-1.7,0.4c-0.3,0.6-0.1,1.3,0.4,1.7c0.2,0.1,0.4,0.2,0.6,0.2c0.4,0,0.8-0.2,1.1-0.6
		C22.7,81.3,22.5,80.5,22,80.2z"/>
	<path class="st0" d="M9.3,73.1c-0.3,0-0.6,0.1-0.9,0.4C8.2,73.7,8,74,8,74.3s0.1,0.6,0.4,0.9c0.2,0.2,0.5,0.4,0.9,0.4
		c0.3,0,0.6-0.1,0.9-0.4c0.2-0.2,0.4-0.5,0.4-0.9c0-0.3-0.1-0.6-0.4-0.9C9.9,73.2,9.6,73.1,9.3,73.1z"/>
	<path class="st0" d="M9.3,68.4c-0.7,0-1.2,0.6-1.2,1.3C8,70.4,8.6,71,9.3,71l0,0c0.7,0,1.2-0.6,1.2-1.3C10.5,69.1,10,68.4,9.3,68.4
		z"/>
	<path class="st0" d="M88.9,67h-95c-0.3,0-0.5,0.2-0.5,0.5S-6.3,68-6.1,68h94.9c0.3,0,0.5-0.2,0.5-0.5S89.1,67,88.9,67z"/>
</g>
<g id="SvgjsG1299" transform="matrix(1.7916070631562329,0,0,1.7916070631562329,98.56671400775309,17.53701704070452)" class="st1">
	<path class="st2" d="M0.8,6c2.3,0,3.3,1.1,3.3,3.2v0.5c0,1.4-0.4,2.3-1.4,2.8l0,0c1.2,0.5,1.6,1.5,1.6,3v1.1C4.3,18.8,3.2,20,1,20
		h-3.5V6H0.8z M0.7,13.7h-1V18H1c0.7,0,1.1-0.3,1.1-1.4v-1.2C2.1,14.1,1.7,13.7,0.7,13.7z M0.8,8h-1.1v3.7h0.9
		c0.8,0,1.3-0.4,1.3-1.5V9.4C1.9,8.4,1.5,8,0.8,8z M5.6,20V6h2.2v12h3.6v2H5.6z M14.4,9.2v7.6c0,1,0.4,1.4,1.1,1.4s1.1-0.4,1.1-1.4
		V9.2c0-1-0.4-1.4-1.1-1.4C14.9,7.8,14.4,8.2,14.4,9.2z M12.2,16.6V9.4c0-2.2,1.2-3.5,3.3-3.5s3.3,1.3,3.3,3.5v7.3
		c0,2.2-1.2,3.5-3.3,3.5S12.2,18.9,12.2,16.6z M24.6,14.8h2.1v1.9c0,2.2-1.1,3.5-3.3,3.5s-3.3-1.3-3.3-3.5V9.4
		c0-2.2,1.1-3.5,3.3-3.5s3.3,1.3,3.3,3.5v1.4h-2.1V9.2c0-1-0.4-1.4-1.1-1.4s-1.1,0.4-1.1,1.4v7.6c0,1,0.4,1.4,1.1,1.4
		s1.1-0.4,1.1-1.4V14.8z M33.1,20L31,14.4l-0.7,1.3V20H28V6h2.2v6.1l0,0L33.1,6h2.2l-3.1,6.2l3.1,7.8H33.1z M40.6,14.8h2.1v1.9
		c0,2.2-1.1,3.5-3.3,3.5s-3.3-1.3-3.3-3.5V9.4c0-2.2,1.1-3.5,3.3-3.5s3.3,1.3,3.3,3.5v1.4h-2.1V9.2c0-1-0.4-1.4-1.1-1.4
		s-1.1,0.4-1.1,1.4v7.6c0,1,0.4,1.4,1.1,1.4s1.1-0.4,1.1-1.4V14.8z M46.2,14v6H44V6h2.2v6h2.5V6H51v14h-2.2v-6H46.2z M57.5,6l2.2,14
		h-2.2l-0.4-2.5h-2.7L54,20h-2l2.2-14H57.5z M55.7,8.5l-1,7.1h2.1L55.7,8.5C55.8,8.5,55.7,8.5,55.7,8.5z M60.7,20V6h2.2v14H60.7z
		 M69.2,20L66.5,9.9l0,0V20h-2V6h2.8l2.2,8.4l0,0V6h2v14H69.2z M72.4,8V6h6.8v2h-2.3v12h-2.2V8H72.4z M82.2,9.2v7.6
		c0,1,0.4,1.4,1.1,1.4s1.1-0.4,1.1-1.4V9.2c0-1-0.4-1.4-1.1-1.4S82.2,8.2,82.2,9.2z M80,16.6V9.4c0-2.2,1.2-3.5,3.3-3.5
		s3.3,1.3,3.3,3.5v7.3c0,2.2-1.2,3.5-3.3,3.5S80,18.9,80,16.6z M90.1,9.2v7.6c0,1,0.4,1.4,1.1,1.4s1.1-0.4,1.1-1.4V9.2
		c0-1-0.4-1.4-1.1-1.4S90.1,8.2,90.1,9.2z M87.9,16.6V9.4c0-2.2,1.2-3.5,3.3-3.5s3.3,1.3,3.3,3.5v7.3c0,2.2-1.2,3.5-3.3,3.5
		S87.9,18.9,87.9,16.6z M96,20V6h2.2v12h3.6v2H96z M102.5,9.4c0-2.2,1.1-3.5,3.2-3.5s3.2,1.3,3.2,3.5v0.4h-2.1V9.2
		c0-1-0.4-1.4-1.1-1.4s-1.1,0.4-1.1,1.4s0.4,1.8,1.9,3c1.8,1.6,2.4,2.8,2.4,4.4c0,2.2-1.1,3.5-3.3,3.5s-3.3-1.3-3.3-3.5v-0.9h2.1v1
		c0,1,0.4,1.4,1.1,1.4s1.1-0.4,1.1-1.4s-0.4-1.8-1.9-3C103.1,12.1,102.5,11,102.5,9.4z"/>
</g>
</svg>
